<svg version="1.1" id="Layer_1" xmlns="http://www.w3.org/2000/svg" xmlns:xlink="http://www.w3.org/1999/xlink" x="0px" y="0px" viewBox="0 0 500 500" style="width: 166px;" xml:space="preserve" data-imageid="gaming-32" imageName="Gaming" class="illustrations_image">
<style type="text/css">
	.st0_gaming-32{fill:#FFFFFF;}
	.st1_gaming-32{fill:#093F68;}
	.st2_gaming-32{fill:#68E1FD;}
	.st3_gaming-32{fill:#FFBC0E;}
	.st4_gaming-32{fill:#F56132;}
	.st5_gaming-32{fill:#FFC9B0;}
</style>
<g id="line_gaming-32">
	<path class="st0_gaming-32" d="M428.5,249.7c0,98.8-80.1,178.8-178.8,178.8c-57.6,0-111.7-27.8-145.3-74.6l0,0c-57.6-80.2-39.2-192,41-249.6&#10;&#9;&#9;c30.4-21.8,66.9-33.6,104.3-33.6C348.5,70.9,428.5,150.9,428.5,249.7z"/>
	<path class="st1_gaming-32" d="M249.7,430.5c-26.5,0.1-52.7-5.8-76.7-17c-27.9-13.1-52.1-33.2-70.1-58.3c0-0.1-0.1-0.1-0.1-0.2&#10;&#9;&#9;c-22.1-30.7-33.9-67.5-33.8-105.3C68.9,150,150,68.9,249.7,68.9S430.5,150,430.5,249.7c0.1,37.8-11.8,74.7-33.9,105.4&#10;&#9;&#9;c-18,25.1-42.2,45.1-70.1,58.3C302.4,424.7,276.2,430.5,249.7,430.5z M106.1,353.1c17.7,24.5,41.2,44,68.5,56.9&#10;&#9;&#9;c47.6,22.2,102.6,22.2,150.2,0c27.4-12.9,51-32.5,68.6-57c21.7-30,33.3-66.1,33.2-103.2c0-97.6-79.4-176.9-176.9-176.9&#10;&#9;&#9;S72.8,152.1,72.8,249.7c-0.1,37,11.5,73.1,33.2,103.2l0,0C106,352.9,106.1,353,106.1,353.1z"/>
</g>
<g id="gaming_gaming-32">
	<rect x="185.4" y="209" class="st2_gaming-32 targetColor" width="145.4" height="90" style="fill: rgb(104, 225, 253);"/>
	<path class="st1_gaming-32" d="M330.8,300.9H185.4c-1.1,0-1.9-0.8-1.9-1.9c0,0,0,0,0,0v-90c0-1.1,0.9-1.9,1.9-1.9c0,0,0,0,0,0h145.4&#10;&#9;&#9;c1.1,0,1.9,0.8,1.9,1.9c0,0,0,0,0,0v90C332.7,300.1,331.9,300.9,330.8,300.9C330.8,300.9,330.8,300.9,330.8,300.9z M187.3,297.1&#10;&#9;&#9;h141.6v-86.2H187.3V297.1z"/>
	<path class="st2_gaming-32 targetColor" d="M133.4,233.4c0,0-15.8,76-16.3,97.1s28.8,33,43,15.9s51.6-89.1,51.6-89.1L133.4,233.4z" style="fill: rgb(104, 225, 253);"/>
	<path class="st1_gaming-32" d="M142.7,356.6c-3.4,0-6.9-0.7-10.1-1.9c-10.8-4.1-17.7-13.6-17.4-24.2c0.6-21,15.7-94.3,16.3-97.4&#10;&#9;&#9;c0.1-0.5,0.4-1,0.9-1.3c0.5-0.3,1-0.3,1.6-0.2l78.3,24c0.5,0.2,1,0.6,1.2,1.1c0.2,0.5,0.2,1.1-0.1,1.6&#10;&#9;&#9;c-1.5,2.9-37.7,72.4-51.9,89.4C157,353.4,150,356.6,142.7,356.6z M134.9,235.9c-2.5,12.3-15.3,76-15.8,94.7&#10;&#9;&#9;c-0.2,9,5.6,17,14.9,20.5c7.3,2.8,17.6,2.7,24.7-5.8c12.6-15.1,44.1-74.8,50.4-86.7L134.9,235.9z"/>
	<path class="st3_gaming-32" d="M159.6,188.1h27.3c4.6,0,8.4,3.8,8.4,8.4v21.2l0,0h-44l0,0v-21.2C151.3,191.9,155,188.1,159.6,188.1z"/>
	<path class="st1_gaming-32" d="M195.3,219.7h-44c-1.1,0-1.9-0.9-1.9-1.9c0,0,0,0,0,0v-21.4c0-5.6,4.5-10.2,10.2-10.2H187&#10;&#9;&#9;c5.6,0,10.2,4.6,10.2,10.2v21.4C197.2,218.8,196.3,219.6,195.3,219.7z M153.1,215.8h40.2v-19.4c0-3.5-2.8-6.3-6.3-6.4c0,0,0,0,0,0&#10;&#9;&#9;h-27.6c-3.5,0-6.3,2.8-6.3,6.3V215.8z"/>
	<circle class="st2_gaming-32 targetColor" cx="173.2" cy="243.4" r="41" style="fill: rgb(104, 225, 253);"/>
	<path class="st1_gaming-32" d="M173.2,286.3c-23.7,0-42.9-19.2-42.9-42.9s19.2-42.9,42.9-42.9s42.9,19.2,42.9,42.9l0,0&#10;&#9;&#9;C216.1,267.1,196.9,286.3,173.2,286.3z M173.2,204.3c-21.6,0-39.1,17.5-39.1,39.1s17.5,39.1,39.1,39.1s39.1-17.5,39.1-39.1&#10;&#9;&#9;c0,0,0,0,0,0C212.3,221.8,194.8,204.3,173.2,204.3L173.2,204.3z"/>
	<circle class="st4_gaming-32" cx="211.8" cy="284.4" r="25.8"/>
	<path class="st1_gaming-32" d="M211.8,312c-15.3,0-27.7-12.4-27.7-27.7c0-15.3,12.4-27.7,27.7-27.7c15.3,0,27.7,12.4,27.7,27.7l0,0&#10;&#9;&#9;C239.5,299.7,227.1,312,211.8,312z M211.8,260.5c-13.2,0-23.8,10.7-23.8,23.8c0,13.2,10.7,23.8,23.8,23.8s23.8-10.7,23.8-23.8l0,0&#10;&#9;&#9;C235.6,271.2,224.9,260.6,211.8,260.5L211.8,260.5z"/>
	<circle class="st1_gaming-32" cx="211.8" cy="284.4" r="17.4"/>
	<path class="st1_gaming-32" d="M211.8,303.6c-10.6,0-19.3-8.6-19.3-19.3c0-10.6,8.6-19.3,19.3-19.3c10.6,0,19.3,8.6,19.3,19.3l0,0&#10;&#9;&#9;C231,295,222.4,303.6,211.8,303.6z M211.8,269c-8.5,0-15.4,6.9-15.4,15.4c0,8.5,6.9,15.4,15.4,15.4c8.5,0,15.4-6.9,15.4-15.4&#10;&#9;&#9;C227.2,275.9,220.3,269,211.8,269L211.8,269z"/>
	<polygon class="st1_gaming-32" points="182.4,230.7 173.2,239.9 164.1,230.7 164.1,217.4 173.2,216.3 182.4,217.4 &#9;"/>
	<polygon class="st1_gaming-32" points="182.4,256 173.2,246.8 164.1,256 164.1,269.3 173.2,270.4 182.4,269.3 &#9;"/>
	<polygon class="st1_gaming-32" points="185.9,252.5 176.7,243.4 185.9,234.2 199.1,234.2 200.3,243.4 199.1,252.5 &#9;"/>
	<polygon class="st1_gaming-32" points="160.6,252.5 169.8,243.4 160.6,234.2 147.3,234.2 146.2,243.4 147.3,252.5 &#9;"/>
	<path class="st2_gaming-32 targetColor" d="M366.9,233.4c0,0,15.7,76,16.3,97.1s-28.8,33-43,15.9s-51.7-89.1-51.7-89.1L366.9,233.4z" style="fill: rgb(104, 225, 253);"/>
	<path class="st1_gaming-32" d="M357.6,356.6c-7.3,0-14.3-3.2-18.9-8.9c-14.2-17-50.4-86.5-51.9-89.4c-0.5-0.9-0.1-2.1,0.8-2.6&#10;&#9;&#9;c0.1-0.1,0.2-0.1,0.3-0.1l78.4-24c1-0.3,2.1,0.3,2.4,1.3c0,0.1,0,0.1,0,0.2c0.6,3.1,15.8,76.4,16.4,97.4&#10;&#9;&#9;c0.3,10.6-6.5,20.1-17.4,24.2C364.5,355.9,361.1,356.5,357.6,356.6z M291.3,258.6c6.2,11.9,37.8,71.6,50.4,86.7&#10;&#9;&#9;c7.1,8.5,17.4,8.6,24.7,5.8c9.3-3.5,15.1-11.5,14.9-20.5c-0.5-18.7-13.3-82.4-15.9-94.7L291.3,258.6z"/>
	<path class="st3_gaming-32" d="M349.1,217.7h-44l0,0v-21.2c0-4.6,3.8-8.4,8.4-8.4l0,0h27.2c4.6,0,8.4,3.8,8.4,8.4v0L349.1,217.7L349.1,217.7z&#10;&#9;&#9;"/>
	<path class="st1_gaming-32" d="M349.1,219.7H305c-1.1,0-1.9-0.9-1.9-1.9c0,0,0,0,0,0v-21.4c0-5.6,4.5-10.2,10.2-10.2h27.6&#10;&#9;&#9;c5.6,0,10.2,4.5,10.2,10.2c0,0,0,0,0,0v21.4C351,218.8,350.2,219.7,349.1,219.7C349.1,219.7,349.1,219.7,349.1,219.7z M307,215.8&#10;&#9;&#9;h40.2v-19.4c0-3.5-2.8-6.3-6.3-6.3h-27.6c-3.5,0-6.3,2.8-6.3,6.3L307,215.8z"/>
	<circle class="st2_gaming-32 targetColor" cx="327.1" cy="243.4" r="41" style="fill: rgb(104, 225, 253);"/>
	<path class="st1_gaming-32" d="M327.1,286.3c-23.7,0-42.9-19.2-42.9-42.9s19.2-42.9,42.9-42.9c23.7,0,42.9,19.2,42.9,42.9&#10;&#9;&#9;C370,267.1,350.8,286.3,327.1,286.3z M327.1,204.3c-21.6,0-39.1,17.5-39.1,39.1c0,21.6,17.5,39.1,39.1,39.1&#10;&#9;&#9;c21.6,0,39.1-17.5,39.1-39.1c0,0,0,0,0,0C366.1,221.8,348.6,204.3,327.1,204.3L327.1,204.3z"/>
	<circle class="st4_gaming-32" cx="288.5" cy="284.4" r="25.8"/>
	<path class="st1_gaming-32" d="M288.5,312c-15.3,0-27.7-12.4-27.7-27.7c0-15.3,12.4-27.7,27.7-27.7c15.3,0,27.7,12.4,27.7,27.7c0,0,0,0,0,0&#10;&#9;&#9;C316.2,299.7,303.8,312,288.5,312z M288.5,260.5c-13.2,0-23.8,10.7-23.8,23.8s10.7,23.8,23.8,23.8s23.8-10.7,23.8-23.8v0&#10;&#9;&#9;C312.3,271.2,301.7,260.6,288.5,260.5L288.5,260.5z"/>
	<circle class="st1_gaming-32" cx="288.5" cy="284.4" r="17.4"/>
	<path class="st1_gaming-32" d="M288.5,303.6c-10.6,0-19.3-8.6-19.3-19.3s8.6-19.3,19.3-19.3c10.6,0,19.3,8.6,19.3,19.3c0,0,0,0,0,0&#10;&#9;&#9;C307.8,295,299.1,303.6,288.5,303.6z M288.5,269c-8.5,0-15.4,6.9-15.4,15.4s6.9,15.4,15.4,15.4c8.5,0,15.4-6.9,15.4-15.4&#10;&#9;&#9;C303.9,275.9,297,269,288.5,269L288.5,269z"/>
	<circle class="st1_gaming-32" cx="310.2" cy="243.4" r="9.2"/>
	<circle class="st1_gaming-32" cx="342.3" cy="243.4" r="9.2"/>
	<circle class="st1_gaming-32" cx="326.2" cy="227.3" r="9.2"/>
	<circle class="st1_gaming-32" cx="326.2" cy="259.4" r="9.2"/>
	<path class="st1_gaming-32" d="M245,239h-17.5c-1.1,0-1.9-0.9-1.9-1.9s0.9-1.9,1.9-1.9c0,0,0,0,0,0H245c1.1,0,1.9,0.9,1.9,1.9&#10;&#9;&#9;C246.9,238.1,246.1,239,245,239z"/>
	<path class="st1_gaming-32" d="M275.6,239h-17.5c-1.1,0-1.9-0.9-1.9-1.9c0-1.1,0.9-1.9,1.9-1.9h17.5c1.1,0,1.9,0.9,1.9,1.9&#10;&#9;&#9;S276.6,239,275.6,239C275.6,239,275.6,239,275.6,239z"/>
	<path class="st5_gaming-32" d="M219.8,299c-0.1,0.2-0.2,0.4-0.3,0.5l-0.2,0.5l-4.5,10l-41.1,101.7c-27.7-13-51.5-32.9-69.4-57.7l0,0&#10;&#9;&#9;c-1-17.8-2-37-2.1-46.5c-0.5-31.3,1.9-50.4,7.9-55.2c5.8-4.7,14.3-4.1,19.2,1.5l0.3,0.4c0,0,3.8,30,12.9,46&#10;&#9;&#9;c4.6,8,20.4,14.8,35,19.5l0.5,0.2c0.1-0.3,1.6-3.4,3.7-7.5l0.1-0.1c2-3.9,4.5-8.8,6.8-13.2c0.3-0.6,0.6-1.1,0.9-1.7&#10;&#9;&#9;c2.3-4.5,4.3-8.3,5.1-10c0.3-0.6,0.5-0.9,0.5-0.9c0.8-1.5,1.9-2.8,3.2-3.8c4.5-3.6,11.1-4.2,15.6-1.8&#10;&#9;&#9;C219.6,283.8,223,292.3,219.8,299z"/>
	<path class="st1_gaming-32" d="M173.8,413.6c-0.3,0-0.6-0.1-0.8-0.2c-27.9-13.1-52.1-33.2-70.1-58.3c-0.2-0.3-0.4-0.7-0.4-1.1&#10;&#9;&#9;c-1.3-23.9-2-38.7-2.1-46.5c-0.7-44,4.6-53.4,8.6-56.7c6.6-5.4,16.3-4.6,21.9,1.8l0.2,0.3c0.3,0.3,0.5,0.7,0.6,1.1&#10;&#9;&#9;c0,0.3,3.8,29.8,12.6,45.3c3.4,6,14.8,12.3,32.8,18.2c0.6-1.1,1.5-2.9,3-6l0.1-0.2c1.3-2.5,2.8-5.4,4.3-8.4l6.1-11.8&#10;&#9;&#9;c1.1-2.1,1.9-3.8,2.4-4.8l0.5-1c0.9-1.7,2.2-3.2,3.7-4.4c5-4,12.4-4.8,17.7-2c6.2,3.4,10.4,13,6.7,20.7c-0.1,0.2-0.2,0.5-0.3,0.7&#10;&#9;&#9;l-4.6,10.3l-41,101.7c-0.2,0.5-0.6,0.9-1.1,1.1C174.3,413.5,174,413.6,173.8,413.6z M106.3,353.4c17.2,23.8,40.1,42.9,66.5,55.7&#10;&#9;&#9;l40.3-99.9l4.8-10.5c0.1-0.2,0.2-0.3,0.2-0.5l0.1-0.1c2.8-5.8-0.5-13.2-5.1-15.7c-3.9-2.1-9.7-1.4-13.4,1.6c-1.1,0.9-2.1,2-2.7,3.2&#10;&#9;&#9;l-0.5,0.9c-0.5,1-1.3,2.6-2.4,4.7l-6,11.8c-1.5,3-3,5.9-4.3,8.4c0,0.1-0.1,0.1-0.1,0.2c-1.1,2.1-3.4,6.7-3.6,7.2&#10;&#9;&#9;c-0.1,0.5-0.5,0.9-0.9,1.1c-0.5,0.2-1,0.3-1.5,0.1l-0.5-0.2c-19.9-6.4-32-13.2-36.1-20.3c-8.6-15.1-12.5-41.8-13-46.1&#10;&#9;&#9;c-4.3-4.8-11.5-5.3-16.5-1.2c-3.6,3-7.8,14.7-7.2,53.7C104.3,315.2,105,329.8,106.3,353.4z"/>
	<path class="st5_gaming-32" d="M397.1,307.5C397,317,396,336.2,395,354c-17.8,24.8-41.7,44.7-69.4,57.7l-41.1-101.8l-4.6-10.3l-0.1-0.2&#10;&#9;&#9;c0-0.1-0.1-0.2-0.2-0.4c-3.2-6.6,0.3-15.2,5.9-18.2c5.1-2.8,13.2-1.5,17.5,3.6c0.5,0.6,1,1.3,1.3,2c0,0,0.4,0.8,1.1,2.2&#10;&#9;&#9;s1.8,3.6,3.1,6c0,0,0,0,0,0.1c0.6,1.1,1.2,2.3,1.8,3.5c0.1,0.3,0.3,0.6,0.5,0.9c4.8,9.2,10.4,20.3,10.5,20.8&#10;&#9;&#9;c0.4-0.1,0.9-0.3,1.3-0.4c14.4-4.7,29.8-11.3,34.3-19.2c9.1-16,12.9-46,12.9-46c0.3-0.4,0.7-0.8,1.1-1.2c5.1-4.9,13-5.2,18.5-0.8&#10;&#9;&#9;C395.2,257.1,397.6,276.2,397.1,307.5z"/>
	<path class="st1_gaming-32" d="M325.6,413.6c-0.2,0-0.5-0.1-0.7-0.1c-0.5-0.2-0.9-0.6-1.1-1.1l-41.1-101.9l-4.6-10.1c0,0,0-0.1,0-0.1&#10;&#9;&#9;c-0.1-0.2-0.2-0.4-0.3-0.6c-3.7-7.7,0.5-17.3,6.7-20.7s15.3-1.5,19.9,4.1c0.6,0.7,1.1,1.5,1.5,2.3c0,0,0.4,0.8,1.1,2.2&#10;&#9;&#9;s1.8,3.6,3.1,6l0.1,0.2c0.5,1.1,1.1,2.2,1.7,3.4c0.2,0.4,0.3,0.6,0.4,0.9c6.2,12.1,8.8,17.2,9.9,19.4c18.1-5.9,29.4-12.2,32.9-18.2&#10;&#9;&#9;c8.8-15.5,12.6-45,12.6-45.3c0-0.4,0.2-0.7,0.4-1c0.4-0.5,0.8-0.9,1.2-1.3c5.8-5.6,14.8-6,21-0.9c4,3.3,9.2,12.7,8.6,56.7l0,0&#10;&#9;&#9;c-0.1,7.9-0.8,22.7-2.1,46.6c0,0.4-0.1,0.7-0.4,1c-18,25.1-42.2,45.1-70.1,58.3C326.1,413.5,325.9,413.6,325.6,413.6z M281.5,298.5&#10;&#9;&#9;c0,0,0,0.1,0.1,0.1l4.7,10.4l40.4,100c26.4-12.8,49.3-31.9,66.5-55.7c1.3-23.5,2-38.1,2.1-45.9l0,0c0.6-39-3.6-50.7-7.2-53.7&#10;&#9;&#9;c-4.7-3.9-11.5-3.6-15.9,0.7c-0.2,0.2-0.4,0.4-0.6,0.6c-0.6,4.4-4.4,31-13,46.1c-4,7-15.9,13.8-35.4,20.1c-0.4,0.1-0.8,0.3-1.3,0.4&#10;&#9;&#9;c-1,0.3-2.1-0.2-2.4-1.2c0,0,0-0.1,0-0.1c-0.2-0.4-2.2-4.4-10.4-20.5c-0.2-0.3-0.4-0.7-0.5-1c-0.6-1.1-1.2-2.3-1.8-3.4l0,0&#10;&#9;&#9;l-0.1-0.1c-1.2-2.4-2.3-4.5-3.1-5.9l-1.1-2.2c-0.3-0.6-0.7-1.1-1.1-1.6c-3.5-4.2-10.5-5.7-15.1-3.2s-7.8,10-5,15.7L281.5,298.5z&#10;&#9;&#9; M397.1,307.5L397.1,307.5z"/>
	<path class="st1_gaming-32" d="M253.5,210.9c-1.1,0-1.9-0.9-1.9-1.9c0-0.6,0.3-1.2,0.8-1.5c0.1-0.1,11.3-8.6,11.7-20.4&#10;&#9;&#9;c0.3-7.4-3.7-14.8-11.8-21.8c-17.8-15.4-28.3-40.1-26.1-61.4c1.6-15.3,9.4-27.3,22.6-34.6c1-0.5,2.1-0.1,2.6,0.9&#10;&#9;&#9;c0.4,0.9,0.1,2-0.7,2.5C235.4,81,231,94.4,230,104.2c-2.1,20.1,7.9,43.4,24.8,58.1c9.1,7.8,13.5,16.2,13.2,24.9&#10;&#9;&#9;c-0.5,13.7-12.8,23-13.3,23.3C254.4,210.8,253.9,210.9,253.5,210.9z"/>
</g>
</svg>